<?xml version="1.0" encoding="UTF-8"?>
<svg id="Layer_2" data-name="Layer 2" xmlns="http://www.w3.org/2000/svg" xmlns:xlink="http://www.w3.org/1999/xlink" viewBox="0 0 573.71 122.72">
  <defs>
    <style>
      .cls-1 {
        fill: #fff;
      }

      .cls-1, .cls-2 {
        fill-rule: evenodd;
      }

      .cls-2 {
        fill: url(#linear-gradient);
      }
    </style>
    <linearGradient id="linear-gradient" x1="61.36" y1="240.19" x2="61.36" y2="359.79" gradientTransform="translate(0 362.44) scale(1 -1)" gradientUnits="userSpaceOnUse">
      <stop offset="0" stop-color="#fa233b"/>
      <stop offset="1" stop-color="#fb5c74"/>
    </linearGradient>
  </defs>
  <g id="Layer_3" data-name="Layer 3">
    <g>
      <g>
        <path class="cls-2" d="M122.73,38.39c0-1.47,0-2.93,0-4.4,0-1.23-.02-2.47-.05-3.7-.07-2.69-.23-5.4-.71-8.06-.48-2.7-1.28-5.21-2.53-7.67-1.23-2.41-2.83-4.61-4.74-6.53-1.91-1.91-4.12-3.51-6.53-4.74-2.45-1.25-4.96-2.04-7.66-2.53-2.66-.48-5.37-.64-8.06-.71-1.23-.03-2.47-.05-3.7-.05-1.47,0-2.93,0-4.4,0h-45.95c-1.47,0-2.93,0-4.4,0-1.23,0-2.47.02-3.7.05-2.69.08-5.4.23-8.06.71-2.7.48-5.21,1.28-7.66,2.53-2.41,1.23-4.62,2.83-6.53,4.74-1.91,1.91-3.51,4.11-4.74,6.52-1.25,2.45-2.04,4.97-2.53,7.67-.48,2.66-.64,5.37-.71,8.06-.03,1.23-.05,2.47-.05,3.7,0,1.46,0,2.93,0,4.39v45.94c0,1.47,0,2.93,0,4.4,0,1.23.02,2.47.05,3.7.07,2.69.23,5.4.71,8.06.48,2.7,1.28,5.21,2.53,7.67,1.23,2.41,2.83,4.61,4.74,6.52s4.12,3.51,6.53,4.74c2.45,1.25,4.96,2.04,7.66,2.53,2.66.48,5.37.64,8.06.71,1.23.03,2.47.05,3.7.05,1.47.01,2.93,0,4.4,0h45.94c1.47,0,2.93,0,4.4,0,1.23,0,2.47-.02,3.7-.05,2.69-.07,5.4-.23,8.06-.71,2.7-.48,5.21-1.28,7.66-2.53,2.41-1.23,4.62-2.83,6.53-4.74,1.91-1.91,3.51-4.11,4.74-6.52,1.25-2.45,2.04-4.97,2.53-7.67.48-2.66.64-5.37.71-8.06.03-1.23.05-2.47.05-3.7.01-1.47,0-2.93,0-4.4v-45.94h0Z"/>
        <g id="Glyph">
          <path class="cls-1" d="M86.76,18.75c-.3.03-2.93.49-3.25.56l-36.48,7.36h-.01c-.95.2-1.7.54-2.27,1.03-.7.58-1.08,1.41-1.23,2.37-.03.2-.08.62-.08,1.23v45.65c0,1.07-.09,2.1-.81,2.99-.72.88-1.62,1.15-2.66,1.36-.79.16-1.59.32-2.38.48-3.01.61-4.97,1.02-6.75,1.71-1.7.66-2.97,1.5-3.98,2.56-2.01,2.1-2.82,4.96-2.54,7.63.24,2.28,1.26,4.46,3.03,6.07,1.19,1.09,2.68,1.92,4.43,2.27,1.82.36,3.75.24,6.58-.33,1.51-.3,2.92-.78,4.26-1.57,1.33-.78,2.47-1.83,3.36-3.11.89-1.28,1.47-2.7,1.79-4.21.33-1.56.41-2.97.41-4.52v-39.6c0-2.12.6-2.68,2.31-3.1,0,0,30.32-6.12,31.74-6.39,1.97-.38,2.9.18,2.9,2.25v27.03c0,1.07-.01,2.15-.74,3.04-.72.88-1.62,1.15-2.66,1.36-.79.16-1.59.32-2.38.48-3.01.61-4.97,1.02-6.75,1.71-1.7.66-2.97,1.5-3.98,2.56-2.01,2.1-2.89,4.96-2.61,7.63.24,2.28,1.34,4.46,3.1,6.07,1.19,1.09,2.68,1.9,4.43,2.25,1.82.36,3.75.24,6.58-.33,1.51-.3,2.92-.76,4.26-1.55,1.33-.78,2.47-1.83,3.36-3.11.89-1.28,1.47-2.7,1.79-4.21.33-1.56.34-2.97.34-4.52V21.97c0-2.1-1.1-3.4-3.08-3.23Z"/>
        </g>
      </g>
      <g>
        <path d="M199.34,81.65h-8.4l-6.52-17.11h-23.55l-6.21,17.11h-7.86l21.6-56.24h8.02l22.94,56.24ZM182.23,58.64l-9.9-26.09-9.44,26.09h19.33Z"/>
        <path d="M211.84,45.82c3.22-3.86,7.1-5.79,11.62-5.79,5.32,0,9.44,1.89,12.35,5.66,2.92,3.77,4.37,8.87,4.37,15.29s-1.63,11.95-4.89,15.82c-3.26,3.88-7.37,5.81-12.33,5.81-4.4,0-8.11-1.37-11.12-4.1v18.8h-7.25v-56.35h7.25v4.87ZM211.84,71.99c3.09,3.3,6.65,4.95,10.66,4.95,3.12,0,5.6-1.34,7.44-4.01,1.84-2.67,2.76-6.66,2.76-11.95,0-5.01-.87-8.82-2.61-11.41-1.74-2.6-4.17-3.89-7.29-3.89-4.01,0-7.67,2.33-10.97,6.98v19.33Z"/>
        <path d="M255.54,45.82c3.22-3.86,7.1-5.79,11.62-5.79,5.32,0,9.44,1.89,12.35,5.66,2.92,3.77,4.37,8.87,4.37,15.29s-1.63,11.95-4.89,15.82c-3.26,3.88-7.37,5.81-12.33,5.81-4.4,0-8.11-1.37-11.12-4.1v18.8h-7.25v-56.35h7.25v4.87ZM255.54,71.99c3.09,3.3,6.65,4.95,10.66,4.95,3.12,0,5.6-1.34,7.44-4.01,1.84-2.67,2.76-6.66,2.76-11.95,0-5.01-.87-8.82-2.61-11.41-1.74-2.6-4.17-3.89-7.29-3.89-4.01,0-7.67,2.33-10.97,6.98v19.33Z"/>
        <path d="M299.23,81.65h-7.25V25.42h7.25v56.24Z"/>
        <path d="M327.2,82.61c-5.99,0-10.79-1.87-14.43-5.62-3.63-3.75-5.45-8.97-5.45-15.67s1.76-11.86,5.27-15.63c3.52-3.77,8.11-5.66,13.79-5.66s10.44,1.85,13.91,5.56,5.2,8.95,5.2,15.73v1.73h-30.65c.31,4.71,1.6,8.2,3.89,10.47,2.29,2.28,5.11,3.41,8.46,3.41,2.53,0,4.81-.65,6.85-1.94,2.03-1.29,3.1-3.13,3.2-5.51h7.48c-.56,4.2-2.46,7.43-5.7,9.71-3.24,2.28-7.18,3.41-11.83,3.41ZM337.86,57.37c-.59-3.91-1.91-6.84-3.95-8.79-2.05-1.94-4.55-2.91-7.52-2.91s-5.37.96-7.44,2.9c-2.07,1.93-3.39,4.87-3.95,8.8h22.86Z"/>
        <path d="M428.28,81.65h-7.06v-47.84l-16.04,47.84h-6.68l-16.04-47.84v47.84h-7.06V25.42h11.16l15.23,46.88,15.31-46.88h11.16v56.24Z"/>
        <path d="M465.68,76.48c-3.61,4.09-7.66,6.14-12.16,6.14-9.18,0-13.77-5.01-13.77-15.04v-26.62h7.25v26.32c0,3.32.59,5.72,1.76,7.17,1.18,1.46,3.12,2.19,5.83,2.19,4.04,0,7.74-2.17,11.09-6.52v-29.16h7.21v40.7h-7.21v-5.18Z"/>
        <path d="M498.14,82.61c-11.12,0-16.94-4.37-17.46-13.12h7.25c.05,4.96,3.43,7.44,10.13,7.44,2.99,0,5.27-.62,6.85-1.86,1.57-1.24,2.36-2.79,2.36-4.66s-.77-3.14-2.3-3.89c-1.53-.75-4.7-1.73-9.49-2.93-4.8-1.2-8.3-2.54-10.51-4.03-2.21-1.48-3.32-4.09-3.32-7.83,0-3.38,1.37-6.17,4.12-8.38,2.75-2.21,6.43-3.32,11.03-3.32,10.66,0,16.11,3.8,16.34,11.39h-7.21c-.26-3.84-3.13-5.75-8.63-5.75-2.43,0-4.44.46-6.04,1.38-1.6.92-2.4,2.26-2.4,4.03,0,1.59.61,2.73,1.84,3.43,1.23.7,4.3,1.65,9.23,2.84,4.92,1.19,8.58,2.58,10.97,4.16,2.39,1.59,3.59,4.32,3.59,8.21s-1.48,6.78-4.43,9.23c-2.95,2.44-6.92,3.66-11.91,3.66Z"/>
        <path d="M530.13,33.24h-7.25v-7.83h7.25v7.83ZM530.13,81.65h-7.25v-40.7h7.25v40.7Z"/>
        <path d="M557.29,82.61c-5.78,0-10.4-1.86-13.87-5.58-3.47-3.72-5.2-8.96-5.2-15.71s1.73-12.02,5.2-15.73c3.47-3.71,8.09-5.56,13.87-5.56,4.45,0,8.16,1.12,11.15,3.38,2.98,2.25,4.74,5.5,5.27,9.74h-7.44c-.1-2.43-1.02-4.28-2.74-5.56-1.73-1.28-3.8-1.92-6.23-1.92-3.45,0-6.25,1.31-8.4,3.93-2.15,2.62-3.22,6.53-3.22,11.72s1.07,9.06,3.22,11.68c2.15,2.62,4.95,3.93,8.4,3.93,2.43,0,4.51-.64,6.23-1.92,1.73-1.28,2.64-3.12,2.74-5.52h7.44c-.54,4.25-2.3,7.49-5.27,9.74-2.98,2.25-6.7,3.38-11.15,3.38Z"/>
      </g>
    </g>
  </g>
</svg>